# xmcd
#
# Track frame offsets:
#	150
#	19880
#	32893
#	48145
#	62061
#	80336
#	95473
#	113499
#	130278
#	144428
#	161404
#	175206
#	188755
#	204219
#
# Disc length: 2970 seconds
#
# Revision: 3
# Processed by: cddbd v1.5.1PL2 Copyright (c) Steve Scherf et al.
# Submitted via: audiograbber 1.83.01
#
DISCID=af0b980e
DTITLE=Star Disc - SD121
DYEAR=1900
DGENRE=Karaoke
TTITLE0=McGraw, Tim - Live Like You Were Dying
TTITLE1=Trick Pony - Bride, The
TTITLE2=Allan, Gary - Nothing On But The Radio
TTITLE3=Lawrence,Tracy - It's All How You Look At It
TTITLE4=Coffey, Kelley - Dance With My Father
TTITLE5=Jewell, Buddy - One Step At A Time
TTITLE6=Tyler, Ryan - Last Thing She Said, The
TTITLE7=Elam, Katrina - I Won't Say Goodbye
TTITLE8=Parton, Dolly and Norah Jones - Creepin' In
TTITLE9=Rogers, Kenny and Whitney Duncan - My World Is Over
TTITLE10=Austin, Sherrie - Son Of A Preacherman
TTITLE11=Lawson, Shannon - Just Like A Redneck
TTITLE12=Dean, Roxie - Soldier's Wife, A
TTITLE13=Kid Rock - Single Father
EXTD=For Those Who Alphabetise By Last Name
EXTT0=
EXTT1=
EXTT2=
EXTT3=
EXTT4=
EXTT5=
EXTT6=
EXTT7=
EXTT8=
EXTT9=
EXTT10=
EXTT11=
EXTT12=
EXTT13=
PLAYORDER=
